<?xml version="1.0" ?><svg enable-background="new 0 0 64 64" id="Слой_1" version="1.1" viewBox="0 0 64 64" xml:space="preserve" xmlns="http://www.w3.org/2000/svg" xmlns:xlink="http://www.w3.org/1999/xlink"><g id="row_4"><g id="extinguisher"><g><rect fill="#CFD8DC" height="4" width="3" x="14" y="41"/><rect fill="#FFC107" height="7" width="3" x="14" y="45"/><path d="M19.3,5c-2.3,0-4.5,1-5.9,2.9c-1.4,1.8-1.9,4.2-1.4,6.4l0.5,2.2c0.9,3.8,1.4,7.7,1.4,11.6V41h3V28.1     c0-4.2-0.5-8.3-1.5-12.3L15,13.6c-0.3-1.4,0-2.8,0.8-3.9C16.7,8.6,17.9,8,19.3,8H27V5H19.3z" fill="#212121"/><rect fill="#CFD8DC" height="3" width="4.2" x="27" y="5"/></g><g><path d="M30.7,6.4l-0.4-2l14.8-2.7v0c0.2,1.1-0.5,2.1-1.6,2.3L30.7,6.4z"/><path d="M45.7,11.6L30.2,6.4l0.6-1.9l13.6,4.6C45.5,9.4,46,10.6,45.7,11.6L45.7,11.6z"/></g><path d="M35,10.6V6h-6v4.6c0,0.8-0.5,1.6-1.3,1.9l-5.7,2.1c-2.4,0.9-3.9,3.1-3.9,5.6V60c0,1.8,28,1.8,28,0V20.2    c0-2.5-1.6-4.8-3.9-5.6l-5.7-2.1C35.5,12.2,35,11.4,35,10.6z" fill="#D50000"/><circle cx="32" cy="8" fill="#B0BEC5" r="4"/><g><path d="M33.5,5.4C33.1,5.2,32.5,5,32,5s-1.1,0.2-1.5,0.4L32,8L33.5,5.4z" fill="#4CAF50"/><path d="M33.5,5.4L32,8l-1.5-2.6C29.6,5.9,29,6.9,29,8c0,1.7,1.3,3,3,3s3-1.3,3-3C35,6.9,34.4,5.9,33.5,5.4z" fill="#FF1744"/></g><path d="M41,45H23c-0.6,0-1-0.4-1-1V26c0-0.6,0.4-1,1-1h18c0.6,0,1,0.4,1,1v18C42,44.6,41.6,45,41,45z" fill="#ECEFF1"/><g><rect fill="#212121" height="2" width="28" x="18" y="21"/><rect height="2" width="4" x="14" y="21"/></g></g></g></svg>