<?xml version="1.0" ?><svg data-name="Layer 2" id="Layer_2" viewBox="0 0 272 272" xmlns="http://www.w3.org/2000/svg"><defs><style>.cls-1{fill:#009788;}.cls-2{fill:#e2e3e5;}.cls-3{fill:#03a9f5;}</style></defs><title/><path class="cls-1" d="M198,40h-8a62,62,0,0,0-62,62v68a42,42,0,0,1-42,42H70a42,42,0,0,1-42-42V40H8V170a62,62,0,0,0,62,62H86a62,62,0,0,0,62-62V102a42,42,0,0,1,42-42h8a42,42,0,0,1,42,42v50h20V102A62,62,0,0,0,198,40Z"/><rect class="cls-2" height="44" rx="8" ry="8" width="28" x="236" y="92"/><path class="cls-3" d="M242,172c0,5.52,3.58,8,8,8s8-2.48,8-8-8-12-8-12S242,166.48,242,172Z"/></svg>